<svg xmlns="http://www.w3.org/2000/svg" width="47.43" height="48.001"><g fill="#ffbd66"><path d="M23.864 0c-.313 2.206-.778 3.175-2.3 4.143-1.878 1.187-1.514 4.751 2.746 4.751 2.834 0 3.689-1.591 3.378-3.519C27.257 2.69 23.864 0 23.864 0zM11.265 0c-.313 2.206-.778 3.175-2.3 4.143-1.878 1.187-1.513 4.751 2.746 4.751 2.834 0 3.689-1.591 3.378-3.519C14.657 2.69 11.265 0 11.265 0zM40.288 5.375C39.856 2.689 36.463 0 36.463 0c-.313 2.206-.778 3.175-2.3 4.143-1.878 1.187-1.513 4.751 2.746 4.751 2.835 0 3.691-1.594 3.379-3.519z"/></g><g fill="#7a8e9b"><path d="M24.117 6.173a.74.74 0 0 0-.741.741v3.866a.741.741 0 0 0 1.482 0V6.914a.741.741 0 0 0-.741-.741zM11.517 6.173a.741.741 0 0 0-.741.741v3.866a.741.741 0 1 0 1.482 0V6.914a.74.74 0 0 0-.741-.741zM36.716 6.173a.74.74 0 0 0-.741.741v3.866a.741.741 0 0 0 1.482 0V6.914a.739.739 0 0 0-.741-.741z"/></g><g fill="#e2e2e2"><path d="M20.965 10.782h6.304v10.397h-6.304zM8.366 10.782h6.303v10.397H8.366zM33.564 10.782h6.304v10.397h-6.304z"/></g><path d="M1.483 30.07v15.847A2.084 2.084 0 0 0 3.567 48h40.3a2.084 2.084 0 0 0 2.084-2.084V30.07z" fill="#f1bb6b"/><path d="M42.288 28.125a3.749 3.749 0 0 1-5.306 0 3.752 3.752 0 0 0-5.307 0 3.75 3.75 0 0 1-5.307 0 3.75 3.75 0 0 0-5.306 0 3.75 3.75 0 0 1-5.307 0 3.752 3.752 0 0 0-5.307 0 3.75 3.75 0 0 1-5.307 0A3.741 3.741 0 0 0 0 27.99v3.71a3.741 3.741 0 0 1 5.141.136 3.75 3.75 0 0 0 5.307 0 3.752 3.752 0 0 1 5.307 0 3.75 3.75 0 0 0 5.307 0 3.75 3.75 0 0 1 5.306 0 3.75 3.75 0 0 0 5.307 0 3.752 3.752 0 0 1 5.307 0 3.749 3.749 0 0 0 5.306 0 3.741 3.741 0 0 1 5.141-.136v-3.711a3.742 3.742 0 0 0-5.141.136z" fill="#525c6b"/><path d="M42.241 21.179H5.189A5.2 5.2 0 0 0 0 26.367v1.623a3.741 3.741 0 0 1 5.141.135 3.75 3.75 0 0 0 5.307 0 3.752 3.752 0 0 1 5.307 0 3.75 3.75 0 0 0 5.307 0 3.75 3.75 0 0 1 5.306 0 3.75 3.75 0 0 0 5.307 0 3.752 3.752 0 0 1 5.307 0 3.749 3.749 0 0 0 5.306 0 3.742 3.742 0 0 1 5.141-.136v-1.622a5.205 5.205 0 0 0-5.188-5.188z" fill="#7a8e9b"/><path fill="#525c6b" d="M1.483 36.618h44.464v1.853H1.483zM1.483 41.806h44.464v1.853H1.483z"/></svg>