<svg xmlns="http://www.w3.org/2000/svg" viewBox="0 0 48 48"><defs><style>.cls-4{fill:#f6fafd}.cls-6{fill:#3bc5f6}.cls-8{fill:#8a293d}.cls-9{fill:#048ec6}.cls-10{fill:#273941}</style></defs><g id="_22-cry" data-name="22-cry"><circle cx="24" cy="24" r="23" style="fill:#ffce52"/><path d="M24 4c12.15 0 22 8.507 22 19h.975a23 23 0 0 0-45.95 0H2C2 12.507 11.85 4 24 4z" style="fill:#ffe369"/><path d="M46 23c0 10.493-9.85 19-22 19S2 33.493 2 23h-.975c-.014.332-.025.665-.025 1a23 23 0 0 0 46 0c0-.335-.011-.668-.025-1z" style="fill:#ffb32b"/><ellipse class="cls-4" cx="34" cy="5" rx=".825" ry="1.148" transform="rotate(-45.02 34 5)"/><ellipse class="cls-4" cx="26.746" cy="3.5" rx=".413" ry=".574" transform="rotate(-45.02 26.746 3.5)"/><ellipse class="cls-4" cx="30" cy="4" rx="1.65" ry="2.297" transform="rotate(-45.02 30 4)"/><path class="cls-4" d="M29 24v1c0 1.11-2.24 2-5 2s-5-.89-5-2v-1z"/><path d="M29 25v8c0 1.11 0 2-1 2a22.685 22.685 0 0 0-4-1 22.685 22.685 0 0 0-4 1c-1 0-1-.89-1-2v-8c0 1.11 2.24 2 5 2s5-.89 5-2z" style="fill:#ae2d4c"/><path class="cls-6" d="M15 14.18v30.99a22.953 22.953 0 0 1-6-3.75V16l-.08-.18A19.838 19.838 0 0 1 15 14.18zM39.08 15.82 39 16v25.42a22.953 22.953 0 0 1-6 3.75V14.18a19.838 19.838 0 0 1 6.08 1.64z"/><path style="fill:#ededed" d="M19 24h10v1H19z"/><path class="cls-8" d="M24 27c-2.76 0-5-.89-5-2v1c0 1.11 2.24 2 5 2s5-.89 5-2v-1c0 1.11-2.24 2-5 2zM28 34a22.685 22.685 0 0 0-4-1 22.685 22.685 0 0 0-4 1c-1 0-1-.89-1-2v1c0 1.11 0 2 1 2a22.685 22.685 0 0 1 4-1 22.685 22.685 0 0 1 4 1c1 0 1-.89 1-2v-1c0 1.11 0 2-1 2z"/><path class="cls-9" d="M9 36.893v4.527a22.948 22.948 0 0 0 3 2.19v.013c.441.27.894.523 1.354.763l.081.042A23.34 23.34 0 0 0 15 45.17v-4.834a23.024 23.024 0 0 1-3-1.415 21.932 21.932 0 0 1-3-2.028zM36 38.921a23.024 23.024 0 0 1-3 1.415v4.834a22.892 22.892 0 0 0 1.566-.743l.08-.041c.46-.24.913-.493 1.354-.763v-.013a22.948 22.948 0 0 0 3-2.19v-4.527a21.932 21.932 0 0 1-3 2.028z"/><path class="cls-10" d="M43 19h-2c0-1.8-5.076-4-11-4v-2c6.252 0 13 2.294 13 6zM7 19H5c0-3.706 6.748-6 13-6v2c-5.924 0-11 2.2-11 4z"/></g></svg>