<svg xmlns="http://www.w3.org/2000/svg" viewBox="0 0 48 48"><defs><radialGradient id="radial-gradient" cx="-27.957" cy="8.563" r="6" gradientTransform="matrix(3 0 0 2.5 107.871 -4.408)" gradientUnits="userSpaceOnUse"><stop offset="0" stop-color="#5987dd"/><stop offset=".118" stop-color="#638bd6"/><stop offset=".316" stop-color="#7d98c3"/><stop offset=".572" stop-color="#a8aba3"/><stop offset=".871" stop-color="#e3c678"/><stop offset="1" stop-color="#ffd364"/></radialGradient><style>.cls-3{fill:#ffb32b}.cls-4{fill:#273941}.cls-5{fill:#141e21}.cls-6{fill:#f6fafd}</style></defs><g id="_27-feel_bad" data-name="27-feel bad"><circle cx="24" cy="24" r="23" style="fill:#ffce52"/><ellipse cx="24" cy="17" rx="18" ry="15" style="fill:url(#radial-gradient)"/><path class="cls-3" d="M46 23c0 10.493-9.85 19-22 19S2 33.493 2 23h-.975c-.014.332-.025.665-.025 1a23 23 0 0 0 46 0c0-.335-.011-.668-.025-1z"/><ellipse class="cls-4" cx="33" cy="23" rx="3" ry="4"/><ellipse class="cls-5" cx="33" cy="23" rx="2" ry="3"/><circle class="cls-6" cx="34" cy="22" r="1"/><ellipse class="cls-4" cx="15" cy="23" rx="3" ry="4"/><ellipse class="cls-5" cx="15" cy="23" rx="2" ry="3"/><circle class="cls-6" cx="16" cy="22" r="1"/><path class="cls-5" d="M10 19v-2c3.722 0 6-1.295 6-2h2c0 2.626-4.024 4-8 4zM38 19c-3.976 0-8-1.374-8-4h2c0 .705 2.278 2 6 2z"/><path class="cls-4" d="M24 35h-5.5a5.265 5.265 0 0 1 5.5-5 5.265 5.265 0 0 1 5.5 5z"/><path class="cls-5" d="M24 31a5.4 5.4 0 0 1 5.39 4h.11a5.265 5.265 0 0 0-5.5-5 5.265 5.265 0 0 0-5.5 5h.11A5.4 5.4 0 0 1 24 31z"/><path d="M47 12a4 4 0 0 1-8 0c0-2.209 3-8 4-8s4 5.791 4 8z" style="fill:#3bc5f6"/><path d="M43 4c-1 0-4 5.791-4 8a4 4 0 0 0 8 0c0-2.209-3-8-4-8zm0 8.5a2.848 2.848 0 0 1-3-2.667C40 8.361 42.25 4.5 43 4.5s3 3.861 3 5.333a2.848 2.848 0 0 1-3 2.667z" style="fill:#00a3e1"/><path class="cls-3" d="M43 16a3.991 3.991 0 0 1-3.861-3.008A4.661 4.661 0 0 0 39 14a4 4 0 0 0 6.846 2.807q-.255-.777-.562-1.529A3.982 3.982 0 0 1 43 16z"/><ellipse class="cls-6" cx="44" cy="11" rx=".825" ry="1.148" transform="rotate(-45.02 44 11)"/><ellipse class="cls-6" cx="44.746" cy="9.5" rx=".413" ry=".574" transform="rotate(-45.02 44.746 9.5)"/><ellipse class="cls-6" cx="36" cy="9" rx=".825" ry="1.148" transform="rotate(-45.02 36 9)"/><ellipse class="cls-6" cx="29.746" cy="4.5" rx=".413" ry=".574" transform="rotate(-45.02 29.746 4.5)"/><ellipse class="cls-6" cx="33" cy="7" rx="1.65" ry="2.297" transform="rotate(-45.02 33 7)"/></g></svg>