<svg xmlns="http://www.w3.org/2000/svg" xmlns:xlink="http://www.w3.org/1999/xlink" viewBox="0 0 48 48"><defs><radialGradient id="radial-gradient" cx="-6.714" cy="24.714" r="6" gradientTransform="translate(16.833 -4.833) scale(1.167)" gradientUnits="userSpaceOnUse"><stop offset="0" stop-color="#ff568d"/><stop offset=".454" stop-color="#ff9678"/><stop offset=".817" stop-color="#ffc26a"/><stop offset="1" stop-color="#ffd364"/></radialGradient><radialGradient id="radial-gradient-2" cx="19" cy="24.714" xlink:href="#radial-gradient"/><style>.cls-6{fill:#3bc5f6}.cls-7{fill:#00a3e1}.cls-8{fill:#273941}</style></defs><g id="_16-cute" data-name="16-cute"><circle cx="24" cy="24" r="23" style="fill:#ffce52"/><path d="M24 4c12.15 0 22 8.507 22 19h.975a23 23 0 0 0-45.95 0H2C2 12.507 11.85 4 24 4z" style="fill:#ffe369"/><path d="M46 23c0 10.493-9.85 19-22 19S2 33.493 2 23h-.975c-.014.332-.025.665-.025 1a23 23 0 0 0 46 0c0-.335-.011-.668-.025-1z" style="fill:#ffb32b"/><circle cx="9" cy="24" r="7" style="fill:url(#radial-gradient)"/><circle cx="39" cy="24" r="7" style="fill:url(#radial-gradient-2)"/><path class="cls-6" d="M2.657 9 5 6.657 3.828 5.485a1.657 1.657 0 0 0-2.343 0 1.657 1.657 0 0 0 0 2.343zM6.657 5 9 2.657 7.828 1.485a1.657 1.657 0 0 0-2.343 0 1.657 1.657 0 0 0 0 2.343z"/><path class="cls-7" d="M2.485 6.485a1.657 1.657 0 0 1 2.343 0l-1-1a1.657 1.657 0 0 0-2.343 2.343l1 1a1.657 1.657 0 0 1 0-2.343zM6.485 2.485a1.657 1.657 0 0 1 2.343 0l-1-1a1.657 1.657 0 0 0-2.343 2.343l1 1a1.657 1.657 0 0 1 0-2.343z"/><path class="cls-8" d="M32 25.12C31.96 31.71 28.97 38 24 38s-7.96-6.29-8-12.88a8.232 8.232 0 0 0 4 .88 5.824 5.824 0 0 0 4-2 5.824 5.824 0 0 0 4 2 8.232 8.232 0 0 0 4-.88z"/><path d="M24 38c3.444 0 5.934-3.022 7.154-7.069A13.582 13.582 0 0 0 24 29a13.582 13.582 0 0 0-7.154 1.931C18.066 34.978 20.556 38 24 38z" style="fill:#ae2d4c"/><path d="M24 36c-2.954 0-5.2-2.226-6.554-5.412-.2.11-.407.222-.6.343C18.066 34.978 20.556 38 24 38s5.934-3.022 7.154-7.069c-.193-.121-.4-.233-.6-.343C29.2 33.774 26.954 36 24 36z" style="fill:#8a293d"/><path class="cls-8" d="M40.553 19.9C38.764 19 36.717 19 33 19a1 1 0 0 1-1-1c0-2.265 3.568-5 8-5v2a7.807 7.807 0 0 0-5.419 2c3.058.018 4.963.151 6.866 1.1zM7.447 19.9l-.894-1.79c1.9-.951 3.808-1.084 6.866-1.1A7.807 7.807 0 0 0 8 15v-2c4.432 0 8 2.735 8 5a1 1 0 0 1-1 1c-3.717 0-5.764 0-7.553.9zM28 27a6.127 6.127 0 0 1-4-1.642A6.127 6.127 0 0 1 20 27c-4.836 0-7-2.511-7-5h2c0 1.794 2.01 3 5 3a4.791 4.791 0 0 0 3.293-1.707 1 1 0 0 1 1.414 0A4.791 4.791 0 0 0 28 25c2.99 0 5-1.206 5-3h2c0 2.489-2.164 5-7 5z"/><path class="cls-6" d="M45.343 9 43 6.657l1.172-1.172a1.657 1.657 0 0 1 2.343 0 1.657 1.657 0 0 1 0 2.343zM41.343 5 39 2.657l1.172-1.172a1.657 1.657 0 0 1 2.343 0 1.657 1.657 0 0 1 0 2.343z"/><path class="cls-7" d="M46.515 5.485a1.657 1.657 0 0 0-2.343 0l-1 1a1.657 1.657 0 1 1 2.343 2.343l1-1a1.657 1.657 0 0 0 0-2.343zM42.515 1.485a1.657 1.657 0 0 0-2.343 0l-1 1a1.657 1.657 0 0 1 2.343 2.343l1-1a1.657 1.657 0 0 0 0-2.343z"/></g></svg>